<?xml version="1.0" encoding="UTF-8"?>
<svg width="18px" height="20px" viewBox="0 0 18 20" version="1.1" xmlns="http://www.w3.org/2000/svg" xmlns:xlink="http://www.w3.org/1999/xlink">
    <title>copy</title>
    <g id="页面-1" stroke="none" stroke-width="1" fill="none" fill-rule="evenodd">
        <g id="copy" fill="#000000" fill-rule="nonzero">
            <path d="M4,4 L4,1 C4,0.44771525 4.44771525,0 5,0 L17,0 C17.5522847,0 18,0.44771525 18,1 L18,15 C18,15.5522847 17.5522847,16 17,16 L14,16 L14,19 C14,19.552 13.55,20.000018 12.993,20.000018 L1.007,20.000018 C0.74065346,20.0015966 0.484653194,19.8969771 0.295658629,19.7092963 C0.106664063,19.5216155 0.00026129968,19.2663512 4.4408921e-16,19 L0.003,5 C0.003,4.448 0.453,4 1.01,4 L4,4 Z M6,4 L14,4 L14,14 L16,14 L16,2 L6,2 L6,4 Z M4,9 L4,11 L10,11 L10,9 L4,9 Z M4,13 L4,15 L10,15 L10,13 L4,13 Z" id="形状"></path>
        </g>
    </g>
</svg>