<?xml version="1.0" encoding="UTF-8"?>
<svg width="20px" height="12px" viewBox="0 0 20 12" version="1.1" xmlns="http://www.w3.org/2000/svg" xmlns:xlink="http://www.w3.org/1999/xlink">
    <title>code</title>
    <g id="页面-1" stroke="none" stroke-width="1" fill="none" fill-rule="evenodd">
        <g id="code" fill="#000000" fill-rule="nonzero">
            <path d="M6.7,9.9 L2.8,6 L6.7,2.1 C6.88712306,1.91513296 6.99243945,1.66304157 6.99243945,1.4 C6.99243945,1.13695843 6.88712306,0.884867043 6.7,0.7 C6.51513296,0.512876935 6.26304157,0.407560554 6,0.407560554 C5.73695843,0.407560554 5.48486704,0.512876935 5.3,0.7 L0.71,5.29 C0.522771911,5.47684459 0.417555968,5.73049053 0.417555968,5.995 C0.417555968,6.25950947 0.522771911,6.51315541 0.71,6.7 L5.3,11.3 C5.69,11.69 6.31,11.69 6.7,11.3 C6.88712306,11.115133 6.99243945,10.8630416 6.99243945,10.6 C6.99243945,10.3369584 6.88712306,10.084867 6.7,9.9 Z M13.3,9.9 L17.2,6 L13.3,2.1 C13.1128769,1.91513296 13.0075606,1.66304157 13.0075606,1.4 C13.0075606,1.13695843 13.1128769,0.884867043 13.3,0.7 C13.484867,0.512876935 13.7369584,0.407560554 14,0.407560554 C14.2630416,0.407560554 14.515133,0.512876935 14.7,0.7 L19.29,5.29 C19.68,5.68 19.68,6.31 19.29,6.7 L14.7,11.3 C14.515133,11.4871231 14.2630416,11.5924394 14,11.5924394 C13.7369584,11.5924394 13.484867,11.4871231 13.3,11.3 C13.1128769,11.115133 13.0075606,10.8630416 13.0075606,10.6 C13.0075606,10.3369584 13.1128769,10.084867 13.3,9.9 L13.3,9.9 Z" id="形状"></path>
        </g>
    </g>
</svg>