<?xml version="1.0" encoding="UTF-8"?>
<svg width="555px" height="555px" viewBox="0 0 555 555" version="1.1" xmlns="http://www.w3.org/2000/svg" xmlns:xlink="http://www.w3.org/1999/xlink">
    <title>页面 1</title>
    <g id="页面-1" stroke="none" stroke-width="1" fill="none" fill-rule="evenodd">
        <polygon id="路径" fill="#000000" fill-rule="nonzero" points="384.333333 384.333333 469.666667 384.333333 469.666667 299 555 299 555 427 469.666667 427 469.666667 469.666667 384.333333 469.666667 384.333333 427 299 427 299 299 384.333333 299"></polygon>
        <path d="M226.333333,0.333333 C242.901875,0.333333 256.333333,13.7647905 256.333333,30.333333 L256.333333,226.333333 C256.333333,242.901875 242.901875,256.333333 226.333333,256.333333 L30.333333,256.333333 C13.7647905,256.333333 0.333333,242.901875 0.333333,226.333333 L0.333333,30.333333 C0.333333,13.7647905 13.7647905,0.333333 30.333333,0.333333 L226.333333,0.333333 Z M171,85.666667 L85.666667,85.666667 L85.666667,171 L171,171 L171,85.666667 Z" id="形状结合" fill="#000000" fill-rule="nonzero"></path>
        <path d="M226.333333,299 C242.901875,299 256.333333,312.431458 256.333333,329 L256.333333,525 C256.333333,541.568542 242.901875,555 226.333333,555 L30.333333,555 C13.7647905,555 0.333333,541.568542 0.333333,525 L0.333333,329 C0.333333,312.431458 13.7647905,299 30.333333,299 L226.333333,299 Z M171,384.333334 L85.666667,384.333334 L85.666667,469.666667 L171,469.666667 L171,384.333334 Z" id="形状结合" fill="#000000" fill-rule="nonzero"></path>
        <path d="M525,0.333333 C541.568542,0.333333 555,13.7647905 555,30.333333 L555,226.333333 C555,242.901875 541.568542,256.333333 525,256.333333 L329,256.333333 C312.431458,256.333333 299,242.901875 299,226.333333 L299,30.333333 C299,13.7647905 312.431458,0.333333 329,0.333333 L525,0.333333 Z M469.666667,85.666667 L384.333334,85.666667 L384.333334,171 L469.666667,171 L469.666667,85.666667 Z" id="形状结合" fill="#000000" fill-rule="nonzero"></path>
        <polygon id="路径" fill="#000000" fill-rule="nonzero" points="469.666667 469.666667 555 469.666667 555 555 469.666667 555"></polygon>
        <polygon id="路径" fill="#000000" fill-rule="nonzero" points="299 469.666667 384.333333 469.666667 384.333333 555 299 555"></polygon>
    </g>
</svg>