<?xml version="1.0" encoding="UTF-8"?>
<svg width="272px" height="43px" viewBox="0 0 272 43" version="1.1" xmlns="http://www.w3.org/2000/svg" xmlns:xlink="http://www.w3.org/1999/xlink">
    <title>logo</title>
    <defs>
        <path d="M5.57034796,10 C6.20574887,10 6.70499244,9.84070796 7.18608169,9.44247788 C7.21331316,9.54867257 7.2677761,9.68141593 7.29500756,9.73451327 C7.37670197,9.87610619 7.49470499,9.94690265 7.63993949,9.94690265 C7.87594554,9.94690265 8.16641452,9.79646018 8.16641452,9.51327434 C8.16641452,9.44247788 8.14826021,9.38053097 8.11195159,9.31858407 C8.01210287,9.15044248 7.9667171,8.90265487 7.9667171,8.56637168 L7.9667171,6.67256637 C7.9667171,5.69911504 7.42208775,5.22123894 6.19667171,5.22123894 C5.19818457,5.22123894 4.53555219,5.59292035 4.26323752,6.36283186 C4.24508321,6.4159292 4.23600605,6.46902655 4.23600605,6.51327434 C4.23600605,6.73451327 4.4720121,6.87610619 4.74432678,6.87610619 C4.90771558,6.87610619 5.07110439,6.80530973 5.14372163,6.60176991 C5.27987897,6.21238938 5.49773071,5.92035398 6.18759455,5.92035398 C6.77760968,5.92035398 7.09531014,6.17699115 7.09531014,6.66371681 L7.09531014,6.86725664 C6.44175492,6.92035398 5.93343419,7.00884956 5.50680787,7.11504425 C4.46293495,7.38053097 4,7.84070796 4,8.63716814 C4,9.48672566 4.60816944,10 5.57034796,10 Z M5.69742814,9.30088496 C5.20726172,9.30088496 4.88048411,9.04424779 4.88048411,8.63716814 C4.88048411,8.22123894 5.16187595,7.96460177 5.66111952,7.80530973 C6.08774584,7.67256637 6.55975794,7.57522124 7.09531014,7.53097345 L7.09531014,8.6460177 C6.6505295,9.07079646 6.19667171,9.30088496 5.69742814,9.30088496 Z M12.623298,9.94690265 C12.9228442,9.94690265 13.0771558,9.81415929 13.0771558,9.54867257 L13.0771558,7.02654867 C13.0771558,5.82300885 12.5234493,5.22123894 11.4069592,5.22123894 C10.8532526,5.22123894 10.408472,5.48672566 10.0635401,5.91150442 L10.0635401,5.67256637 C10.0635401,5.40707965 9.92738275,5.27433628 9.62783661,5.27433628 C9.31921331,5.27433628 9.17397882,5.40707965 9.17397882,5.67256637 L9.17397882,9.53982301 C9.17397882,9.81415929 9.31921331,9.94690265 9.61875946,9.94690265 C9.92738275,9.94690265 10.0635401,9.81415929 10.0635401,9.53982301 L10.0635401,6.90265487 C10.4538578,6.28318584 10.8441755,5.97345133 11.3343419,5.97345133 C11.8789713,5.97345133 12.1694402,6.32743363 12.1694402,7.07079646 L12.1694402,9.54867257 C12.1694402,9.81415929 12.3146747,9.94690265 12.623298,9.94690265 Z M16.0181543,10 C16.3630862,10 16.6172466,9.9380531 16.8623298,9.83185841 C17.0075643,9.7699115 17.0801815,9.6460177 17.0801815,9.50442478 C17.0801815,9.22123894 16.8623298,9.00884956 16.6535552,9.00884956 C16.580938,9.00884956 16.5173979,9.03539823 16.4447806,9.07079646 C16.2813918,9.16814159 16.1452345,9.19469027 16.0272315,9.19469027 C15.7639939,9.19469027 15.6278366,9.00884956 15.6278366,8.63716814 L15.6278366,6.07079646 L16.5537065,6.07079646 C16.8441755,6.07079646 16.98941,5.94690265 16.98941,5.69911504 C16.98941,5.45132743 16.8441755,5.32743363 16.5537065,5.32743363 L15.6278366,5.32743363 L15.6278366,4.08849558 C15.6278366,3.82300885 15.4916793,3.69026549 15.2012103,3.69026549 C14.892587,3.69026549 14.7382753,3.82300885 14.7382753,4.08849558 L14.7382753,5.32743363 L14.2934947,5.32743363 C14.0030257,5.32743363 13.8487141,5.45132743 13.8487141,5.69911504 C13.8487141,5.94690265 14.0030257,6.07079646 14.2934947,6.07079646 L14.7382753,6.07079646 L14.7382753,8.77876106 C14.7382753,9.59292035 15.1649017,10 16.0181543,10 Z M19.6580938,10 C20.2390318,10 20.7019667,9.78761062 21.0559758,9.27433628 C21.065053,9.40707965 21.0741301,9.51327434 21.0922844,9.61946903 C21.128593,9.86725664 21.2829047,9.95575221 21.4916793,9.95575221 C21.7730711,9.95575221 22,9.81415929 22,9.55752212 C22,9.52212389 22,9.48672566 21.9909228,9.45132743 C21.9273828,9.17699115 21.8910741,8.92920354 21.8910741,8.61061947 L21.8910741,3.39823009 C21.8910741,3.13274336 21.7458396,3 21.4372163,3 C21.1467474,3 21.0015129,3.13274336 21.0015129,3.39823009 L21.0015129,5.84070796 C20.6384266,5.40707965 20.193646,5.22123894 19.667171,5.22123894 C18.1785174,5.22123894 17.570348,6.47787611 17.570348,7.60176991 C17.570348,8.82300885 18.2239032,10 19.6580938,10 Z M19.730711,9.25663717 C18.9591528,9.25663717 18.4780635,8.61946903 18.4780635,7.60176991 C18.4780635,6.5840708 18.9773071,5.96460177 19.7397882,5.96460177 C20.2753404,5.96460177 20.7019667,6.28318584 21.0015129,6.84955752 L21.0015129,8.31858407 C20.7019667,8.91150442 20.2753404,9.25663717 19.730711,9.25663717 Z" id="path-1"></path>
    </defs>
    <g id="页面-1" stroke="none" stroke-width="1" fill="none" fill-rule="evenodd">
        <g id="logo" fill-rule="nonzero">
            <g id="形状-path">
                <path d="M17.820222,0.5 C27.3859769,0.5 35.1398101,8.2543961 35.1398101,17.8200635 C35.1398101,27.385414 27.3859769,35.1398101 17.820222,35.1398101 C8.2544671,35.1398101 0.5,27.385414 0.5,17.8200635 C0.5,8.2543961 8.2544671,0.5 17.820222,0.5 Z" id="路径" fill="#FFDA00"></path>
                <path d="M10.0993501,6.73502 C6.9661233,6.73502 4.4258832,9.2733353 4.4258832,12.4043149 C4.4258832,15.5356115 6.9661233,18.0739267 10.0993501,18.0739267 C11.0840695,18.0739267 12.0104727,17.822599 12.8177081,17.3814285 L12.8966647,17.4861748 L12.8966647,17.4861748 L12.9863179,17.5852163 L15.7192549,20.3162266 L9.8556265,26.1756814 C9.315152,26.7158537 9.2813723,27.5707924 9.7542875,28.1503107 L9.8556265,28.2623672 L10.0644872,28.471226 C10.6052588,29.0113985 11.4607996,29.0451592 12.0406563,28.5725083 L12.1527769,28.471226 L18.0164052,22.6117712 L23.8797167,28.471226 C24.4201912,29.0113985 25.2759919,29.0451592 25.8558822,28.5725083 L25.9680063,28.471226 L26.176867,28.2623672 C26.7173415,27.7221947 26.7511212,26.867256 26.278206,26.2877379 L26.176867,26.1756814 L15.2834682,15.2893547 C15.2197641,15.2259681 15.1509891,15.1705049 15.0793616,15.1207464 C15.52117,14.3141523 15.7725001,13.3887084 15.7725001,12.4043149 C15.7725001,9.2733353 13.23226,6.73502 10.0993501,6.73502 Z" id="路径" fill="#000000"></path>
                <path d="M26.6237464,7.0605101 C26.3207295,6.7574959 25.8448746,6.7322447 25.5130513,6.9847565 L25.4263632,7.0605101 C25.4263632,7.0605101 20.8615375,11.6595227 19.763672,12.9148937 C19.1862151,13.6466917 19.004294,14.5033612 19.0746537,15.4928256 C19.2191764,17.520562 20.8754827,19.1736837 23.0965685,19.1736837 C23.9789176,19.1736837 24.7630166,18.9118972 25.4010082,18.4700928 C26.0529452,18.067905 31.1961786,12.8264695 31.1961786,12.8264695 C31.5267424,12.4959085 31.5267424,11.960292 31.1961786,11.629731 C30.8931615,11.3270073 30.4175731,11.3017803 30.08555,11.5540501 L29.9978444,11.6306818 L29.9997461,11.6322665 L25.0926298,16.5358516 C24.7937594,16.8492982 24.3158203,16.8749698 24.001103,16.585927 C23.7149966,16.323449 23.6727472,15.8946467 23.8860227,15.5835929 L23.9576828,15.4940933 L26.1955662,13.2578151 L26.1939816,13.2559135 L28.9098041,10.5417005 C29.2406849,10.2111396 29.2406849,9.6755231 28.9098041,9.345279 C28.606787,9.0422648 28.1311986,9.0170136 27.7994196,9.2695255 L27.7127377,9.345279 L22.8056214,14.2488641 C22.506751,14.5619938 22.0288119,14.5879823 21.7140946,14.2989395 C21.4277,14.0364615 21.3854245,13.6073973 21.5986977,13.296534 L21.6703576,13.2071058 L26.6237464,8.2572485 C26.9543104,7.9266876 26.9543104,7.3907541 26.6237464,7.0605101 Z" id="路径" fill="#000000"></path>
            </g>
            <text id="FE-PACKAGES" fill="#000000" font-family="YuKyo-Medium, YuKyokasho" font-size="24" font-weight="400">
                <tspan x="46" y="27">FE PACKAGES</tspan>
            </text>
            <g id="编组" transform="translate(247.000000, 0.000000)">
                <rect id="矩形" fill="#FFDA00" x="0" y="0" width="25" height="13" rx="2"></rect>
                <g id="antd" fill="#000000">
                    <use xlink:href="#path-1"></use>
                    <use xlink:href="#path-1"></use>
                </g>
            </g>
        </g>
    </g>
</svg>