<?xml version="1.0" encoding="UTF-8"?>
<svg width="36px" height="36px" viewBox="0 0 36 36" version="1.1" xmlns="http://www.w3.org/2000/svg" xmlns:xlink="http://www.w3.org/1999/xlink">
    <title>logo</title>
    <g id="页面-1" stroke="none" stroke-width="1" fill="none" fill-rule="evenodd">
        <g id="logo" fill-rule="nonzero">
            <path d="M17.820222,0.5 C27.3859769,0.5 35.1398101,8.2543961 35.1398101,17.8200635 C35.1398101,27.385414 27.3859769,35.1398101 17.820222,35.1398101 C8.2544671,35.1398101 0.5,27.385414 0.5,17.8200635 C0.5,8.2543961 8.2544671,0.5 17.820222,0.5 Z" id="形状-path" fill="#FFDA00"></path>
            <path d="M10.0993501,6.73502 C6.9661233,6.73502 4.4258832,9.2733353 4.4258832,12.4043149 C4.4258832,15.5356115 6.9661233,18.0739267 10.0993501,18.0739267 C11.0840695,18.0739267 12.0104727,17.822599 12.8177081,17.3814285 L12.8966647,17.4861748 L12.8966647,17.4861748 L12.9863179,17.5852163 L15.7192549,20.3162266 L9.8556265,26.1756814 C9.315152,26.7158537 9.2813723,27.5707924 9.7542875,28.1503107 L9.8556265,28.2623672 L10.0644872,28.471226 C10.6052588,29.0113985 11.4607996,29.0451592 12.0406563,28.5725083 L12.1527769,28.471226 L18.0164052,22.6117712 L23.8797167,28.471226 C24.4201912,29.0113985 25.2759919,29.0451592 25.8558822,28.5725083 L25.9680063,28.471226 L26.176867,28.2623672 C26.7173415,27.7221947 26.7511212,26.867256 26.278206,26.2877379 L26.176867,26.1756814 L15.2834682,15.2893547 C15.2197641,15.2259681 15.1509891,15.1705049 15.0793616,15.1207464 C15.52117,14.3141523 15.7725001,13.3887084 15.7725001,12.4043149 C15.7725001,9.2733353 13.23226,6.73502 10.0993501,6.73502 Z" id="形状-path" fill="#000000"></path>
            <path d="M26.6237464,7.0605101 C26.3207295,6.7574959 25.8448746,6.7322447 25.5130513,6.9847565 L25.4263632,7.0605101 C25.4263632,7.0605101 20.8615375,11.6595227 19.763672,12.9148937 C19.1862151,13.6466917 19.004294,14.5033612 19.0746537,15.4928256 C19.2191764,17.520562 20.8754827,19.1736837 23.0965685,19.1736837 C23.9789176,19.1736837 24.7630166,18.9118972 25.4010082,18.4700928 C26.0529452,18.067905 31.1961786,12.8264695 31.1961786,12.8264695 C31.5267424,12.4959085 31.5267424,11.960292 31.1961786,11.629731 C30.8931615,11.3270073 30.4175731,11.3017803 30.08555,11.5540501 L29.9978444,11.6306818 L29.9997461,11.6322665 L25.0926298,16.5358516 C24.7937594,16.8492982 24.3158203,16.8749698 24.001103,16.585927 C23.7149966,16.323449 23.6727472,15.8946467 23.8860227,15.5835929 L23.9576828,15.4940933 L26.1955662,13.2578151 L26.1939816,13.2559135 L28.9098041,10.5417005 C29.2406849,10.2111396 29.2406849,9.6755231 28.9098041,9.345279 C28.606787,9.0422648 28.1311986,9.0170136 27.7994196,9.2695255 L27.7127377,9.345279 L22.8056214,14.2488641 C22.506751,14.5619938 22.0288119,14.5879823 21.7140946,14.2989395 C21.4277,14.0364615 21.3854245,13.6073973 21.5986977,13.296534 L21.6703576,13.2071058 L26.6237464,8.2572485 C26.9543104,7.9266876 26.9543104,7.3907541 26.6237464,7.0605101 Z" id="形状-path" fill="#000000"></path>
        </g>
    </g>
</svg>